# xmcd
#
# Track frame offsets: 
#        150
#        13731
#        26829
#        38615
#        49984
#        63032
#        76414
#        86147
#        99081
#        109954
#        121543
#        130616
#        143957
#        156134
#        170918
#        180869
#        193500
#        204653
#        215720
#        229019
#        238950
#        250871
#        263500
#        274516
#        288043
#        298528
#        310031
#
# Disc length: 4305 seconds
#
# Revision: 0
# Processed by: cddbd v1.5.2PL0 Copyright (c) Steve Scherf et al.
# Submitted via: ExactAudioCopy v0.99pb4
#
DISCID=7310cf1b
DTITLE=Various Artist - Hands Off!
DYEAR=2007
DGENRE=R&B
TTITLE0=Donna Hightower - Dog Gone It
TTITLE1=Donna Hightower - Love Me Again
TTITLE2=Donna Hightower - Bob-O-Link
TTITLE3=Donna Hightower - Since You
TTITLE4=Donna Hightower - Hands Off
TTITLE5=Donna Hightower - Right Now
TTITLE6=Donna Hightower - He's My Baby
TTITLE7=Donna Hightower - I Ain't Gonna Tell
TTITLE8=Donna Hightower - Cool Daddy Cool
TTITLE9=Helen Humes - The Laziest Gal In Town
TTITLE10=Helen Humes - Hey, Hey Baby
TTITLE11=Helen Humes - Living My Life My Way
TTITLE12=Helen Humes - I Ain't In The Mood
TTITLE13=Helen Humes - Take My Love
TTITLE14=Dolly Cooper - My Man Aka He May Be Your Man
TTITLE15=Dolly Cooper - Ay La Bah
TTITLE16=Dolly Cooper - Down So Long
TTITLE17=Dolly Cooper - Teenage Prayer
TTITLE18=Dolly Cooper - Teenage Wedding Bells
TTITLE19=Dolly Cooper - Every Day And Every Night
TTITLE20=Linda Peters - One More Chance
TTITLE21=Linda Peters - Ooh Daddy
TTITLE22=Linda Peters - If I Had Listened
TTITLE23=Linda Peters - Central 1609
TTITLE24=Linda Peters - You Won't Trouble Me No More
TTITLE25=Zola Taylor - Make Love To Me
TTITLE26=Zola Taylor - Oh, My Dear
EXTD=
EXTT0=
EXTT1=
EXTT2=
EXTT3=
EXTT4=
EXTT5=
EXTT6=
EXTT7=
EXTT8=
EXTT9=
EXTT10=
EXTT11=
EXTT12=
EXTT13=
EXTT14=
EXTT15=
EXTT16=
EXTT17=
EXTT18=
EXTT19=
EXTT20=
EXTT21=
EXTT22=
EXTT23=
EXTT24=
EXTT25=
EXTT26=
PLAYORDER=
